<?xml version="1.0" encoding="UTF-8"?>
<svg width="110px" height="11px" viewBox="0 0 110 11" version="1.1" xmlns="http://www.w3.org/2000/svg" xmlns:xlink="http://www.w3.org/1999/xlink">
    <defs>
        <linearGradient x1="11.0601881%" y1="46.5922045%" x2="86.4692322%" y2="52.2799001%" id="linearGradient-1">
            <stop stop-color="#008BCF" offset="0%"></stop>
            <stop stop-color="#8F5FE0" offset="30.6957348%"></stop>
            <stop stop-color="#FF449F" offset="100%"></stop>
        </linearGradient>
    </defs>
    <g id="Page-1" stroke="none" stroke-width="1" fill="none" fill-rule="evenodd">
        <g id="Artboard" transform="translate(-33.000000, -57.000000)">
            <g id="Rectangle" transform="translate(29.992550, 51.000000)">
                <g id="Mask" transform="translate(0.407450, 0.900000)" fill="#FFFFFF" fill-opacity="0" fill-rule="nonzero">
                    <path d="M18.2594502,16 L18.2594502,13.396 L19.7714502,13.396 L21.5494502,16 L24.5174502,16 L22.4034502,12.92 C23.0194502,12.6213333 23.4931168,12.2083333 23.8244502,11.681 C24.1557835,11.1536667 24.3214502,10.5353333 24.3214502,9.826 C24.3214502,9.08866667 24.1441168,8.447 23.7894502,7.901 C23.4347835,7.355 22.9307835,6.935 22.2774502,6.641 C21.6241168,6.347 20.8541168,6.2 19.9674502,6.2 L19.9674502,6.2 L15.4874502,6.2 L15.4874502,16 L18.2594502,16 Z M19.7994502,11.254 L18.2594502,11.254 L18.2594502,8.384 L19.7994502,8.384 C20.3687835,8.384 20.7981168,8.51 21.0874502,8.762 C21.3767835,9.014 21.5214502,9.36866667 21.5214502,9.826 C21.5214502,10.2833333 21.3767835,10.6356667 21.0874502,10.883 C20.7981168,11.1303333 20.3687835,11.254 19.7994502,11.254 L19.7994502,11.254 Z M28.1994502,16 L28.9694502,14.096 L33.1134502,14.096 L33.8834502,16 L36.7674502,16 L32.4274502,6.2 L29.6974502,6.2 L25.3714502,16 L28.1994502,16 Z M32.3014502,12.052 L29.7814502,12.052 L31.0414502,8.916 L32.3014502,12.052 Z M42.8854502,16 C43.9587835,16 44.9107835,15.7993333 45.7414502,15.398 C46.5721168,14.9966667 47.2161168,14.4273333 47.6734502,13.69 C48.1307835,12.9526667 48.3594502,12.0893333 48.3594502,11.1 C48.3594502,10.1106667 48.1307835,9.24733333 47.6734502,8.51 C47.2161168,7.77266667 46.5721168,7.20333333 45.7414502,6.802 C44.9107835,6.40066667 43.9587835,6.2 42.8854502,6.2 L42.8854502,6.2 L38.2514502,6.2 L38.2514502,16 L42.8854502,16 Z M42.7734502,13.788 L41.0234502,13.788 L41.0234502,8.412 L42.7734502,8.412 C43.6134502,8.412 44.2877835,8.65 44.7964502,9.126 C45.3051168,9.602 45.5594502,10.26 45.5594502,11.1 C45.5594502,11.94 45.3051168,12.598 44.7964502,13.074 C44.2877835,13.55 43.6134502,13.788 42.7734502,13.788 L42.7734502,13.788 Z M53.2874502,16 L53.2874502,6.2 L50.5154502,6.2 L50.5154502,16 L53.2874502,16 Z M63.8294502,16 L63.8294502,13.858 L58.7054502,13.858 L58.7054502,12.066 L63.0594502,12.066 L63.0594502,9.994 L58.7054502,9.994 L58.7054502,8.342 L63.6474502,8.342 L63.6474502,6.2 L55.9614502,6.2 L55.9614502,16 L63.8294502,16 Z M68.7854502,16 L68.7854502,10.778 L73.1114502,16 L75.3934502,16 L75.3934502,6.2 L72.6774502,6.2 L72.6774502,11.422 L68.3514502,6.2 L66.0694502,6.2 L66.0694502,16 L68.7854502,16 Z M82.9114502,16 L82.9114502,8.398 L85.9074502,8.398 L85.9074502,6.2 L77.1294502,6.2 L77.1294502,8.398 L80.1394502,8.398 L80.1394502,16 L82.9114502,16 Z M90.4154502,16 L90.4154502,6.2 L87.6434502,6.2 L87.6434502,16 L90.4154502,16 Z M95.8614502,16 L95.8614502,12.64 L100.18745,12.64 L100.18745,10.498 L95.8614502,10.498 L95.8614502,8.342 L100.77545,8.342 L100.77545,6.2 L93.0894502,6.2 L93.0894502,16 L95.8614502,16 Z M108.02745,16 L108.02745,12.486 L111.77945,6.2 L109.09145,6.2 L106.76745,10.092 L104.44345,6.2 L101.51745,6.2 L105.25545,12.444 L105.25545,16 L108.02745,16 Z" id="RADIENTIFY"></path>
                    <path d="M8.27907142,16.196 C9.00707142,16.196 9.73507142,16.0886667 10.4630714,15.874 C11.1910714,15.6593333 11.8350714,15.3513333 12.3950714,14.95 L12.3950714,14.95 L12.3950714,10.89 L9.94507142,10.89 L9.94507142,13.578 C9.47840475,13.7926667 8.97907142,13.9 8.44707142,13.9 C7.90573808,13.9 7.42507142,13.781 7.00507142,13.543 C6.58507142,13.305 6.25840475,12.9736667 6.02507142,12.549 C5.79173808,12.1243333 5.67507142,11.6413333 5.67507142,11.1 C5.67507142,10.2506667 5.93173808,9.57166667 6.44507142,9.063 C6.95840475,8.55433333 7.63507142,8.3 8.47507142,8.3 C9.39907142,8.3 10.1924048,8.664 10.8550714,9.392 L10.8550714,9.392 L12.6190714,7.796 C12.1337381,7.21733333 11.5270714,6.774 10.7990714,6.466 C10.0710714,6.158 9.24973808,6.004 8.33507142,6.004 C7.28973808,6.004 6.35173808,6.221 5.52107142,6.655 C4.69040475,7.089 4.04173808,7.69333333 3.57507142,8.468 C3.10840475,9.24266667 2.87507142,10.12 2.87507142,11.1 C2.87507142,12.08 3.10840475,12.9573333 3.57507142,13.732 C4.04173808,14.5066667 4.68573808,15.111 5.50707142,15.545 C6.32840475,15.979 7.25240475,16.196 8.27907142,16.196 Z" id="G" transform="translate(7.747071, 11.100000) rotate(-14.000000) translate(-7.747071, -11.100000) "></path>
                </g>
                <rect fill="url(#linearGradient-1)" x="-6.09254983" y="-10.6" width="127" height="45"></rect>
            </g>
        </g>
    </g>
</svg>